
<svg width="314px" height="31px" viewBox="0 0 314 31" version="1.1" xmlns="http://www.w3.org/2000/svg" xmlns:xlink="http://www.w3.org/1999/xlink">
    <!-- Generator: Sketch 49.3 (51167) - http://www.bohemiancoding.com/sketch -->
    <defs>
        <polygon id="path-1" points="0 1.23940901 23.5547636 1.23940901 23.5547636 18.9090909 0 18.9090909"></polygon>
    </defs>
    <g id="index" stroke="none" stroke-width="1" fill="none" fill-rule="evenodd">
        <g id="L-index" transform="translate(-259.000000, -277.000000)">
            <g id="head" transform="translate(230.000000, 230.000000)">
                <g id="logo" transform="translate(29.683594, 47.000000)">
                    <path d="M7.62938182,4.41905455 C7.62938182,2.09323636 6.43083636,0.675054545 4.50065455,0.675054545 C2.34938182,0.675054545 1.40683636,2.47723636 1.40683636,4.41905455 C1.40683636,6.39578182 2.33774545,8.14123636 4.52392727,8.14123636 C6.69847273,8.14123636 7.62938182,6.37250909 7.62938182,4.41905455 M4.47738182,0.000145454545 C7.09410909,0.000145454545 8.4192,1.96523636 8.4192,4.41905455 C8.4192,6.82632727 7.09410909,8.81469091 4.51229091,8.81469091 C1.93047273,8.81469091 0.617018182,6.82632727 0.617018182,4.41905455 C0.617018182,1.98850909 1.97701818,0.000145454545 4.47738182,0.000145454545" id="Fill-1" fill="#1A3D74"></path>
                    <path d="M18.2564364,7.91985455 L19.9073455,7.91985455 C21.6513455,7.91985455 22.4673455,7.68712727 22.4673455,6.23403636 C22.4673455,4.84930909 21.4200727,4.49003636 20.0120727,4.49003636 L18.2564364,4.49003636 L18.2564364,7.91985455 Z M22.6520727,0.220945455 L22.6520727,0.895854545 L18.2564364,0.895854545 L18.2564364,3.81512727 L20.2448,3.81512727 C21.7924364,3.81512727 23.2571636,4.38385455 23.2571636,6.25730909 C23.2571636,7.51258182 22.6404364,8.59476364 20.4658909,8.59476364 L17.4651636,8.59476364 L17.4651636,0.220945455 L22.6520727,0.220945455 Z" id="Fill-3" fill="#1A3D74"></path>
                    <path d="M33.8026182,7.91985455 L35.4535273,7.91985455 C37.1975273,7.91985455 38.0120727,7.68712727 38.0120727,6.23403636 C38.0120727,4.84930909 36.9662545,4.49003636 35.5582545,4.49003636 L33.8026182,4.49003636 L33.8026182,7.91985455 Z M33.8026182,0.220945455 L33.8026182,3.81512727 L35.7909818,3.81512727 C37.3386182,3.81512727 38.8033455,4.38385455 38.8033455,6.25730909 C38.8033455,7.51258182 38.1866182,8.59476364 36.0120727,8.59476364 L33.0113455,8.59476364 L33.0113455,0.895854545 L31.2789818,0.895854545 L31.2789818,0.220945455 L33.8026182,0.220945455 Z" id="Fill-5" fill="#1A3D74"></path>
                    <polygon id="Fill-7" fill="#1A3D74" points="53.4192 0.220945455 53.4192 0.895854545 48.6395636 0.895854545 48.6395636 3.81512727 52.9537455 3.81512727 52.9537455 4.49003636 48.6395636 4.49003636 48.6395636 7.91985455 53.5355636 7.91985455 53.5355636 8.59476364 47.8482909 8.59476364 47.8482909 0.220945455"></polygon>
                    <path d="M64.1726545,0.895709091 L64.1726545,3.57061818 C64.1726545,5.55898182 63.8352,6.73425455 63.2417455,7.91970909 L67.8366545,7.91970909 L67.8366545,0.895709091 L64.1726545,0.895709091 Z M68.6279273,0.2208 L68.6279273,7.91970909 L69.2664727,7.91970909 L69.2664727,10.5131636 L68.4752,10.5131636 L68.4752,8.59461818 L62.5915636,8.59461818 L62.5915636,10.5131636 L61.8002909,10.5131636 L61.8002909,7.91970909 L62.4170182,7.91970909 C63.0453818,6.58298182 63.3828364,5.76843636 63.3828364,3.2448 L63.3828364,0.2208 L68.6279273,0.2208 Z" id="Fill-9" fill="#1A3D74"></path>
                    <polygon id="Fill-11" fill="#1A3D74" points="78.7885091 7.53629091 78.8117818 7.53629091 83.6496 0.221381818 84.5456 0.221381818 84.5456 8.5952 83.7543273 8.5952 83.7543273 1.29192727 83.7310545 1.29192727 78.9165091 8.5952 77.9972364 8.5952 77.9972364 0.221381818 78.7885091 0.221381818"></polygon>
                    <polygon id="Fill-13" fill="#1A3D74" points="94.7060364 3.81469091 99.6602182 3.81469091 99.6602182 0.220509091 100.451491 0.220509091 100.451491 8.59432727 99.6602182 8.59432727 99.6602182 4.4896 94.7060364 4.4896 94.7060364 8.59432727 93.9147636 8.59432727 93.9147636 0.220509091 94.7060364 0.220509091"></polygon>
                    <polygon id="Fill-15" fill="#1A3D74" points="115.392873 0.220945455 115.392873 0.895854545 110.613236 0.895854545 110.613236 3.81512727 114.927418 3.81512727 114.927418 4.49003636 110.613236 4.49003636 110.613236 7.91985455 115.509236 7.91985455 115.509236 8.59476364 109.821964 8.59476364 109.821964 0.220945455"></polygon>
                    <polygon id="Fill-17" fill="#1A3D74" points="125.204655 3.81469091 130.158836 3.81469091 130.158836 0.220509091 130.950109 0.220509091 130.950109 8.59432727 130.158836 8.59432727 130.158836 4.4896 125.204655 4.4896 125.204655 8.59432727 124.413382 8.59432727 124.413382 0.220509091 125.204655 0.220509091"></polygon>
                    <polygon id="Fill-19" fill="#1A3D74" points="141.111709 3.81469091 146.065891 3.81469091 146.065891 0.220509091 146.857164 0.220509091 146.857164 8.59432727 146.065891 8.59432727 146.065891 4.4896 141.111709 4.4896 141.111709 8.59432727 140.320436 8.59432727 140.320436 0.220509091 141.111709 0.220509091"></polygon>
                    <path d="M157.414255,5.2912 L160.6928,5.2912 L159.053527,0.895563636 L157.414255,5.2912 Z M159.530618,0.220654545 L162.7408,8.59447273 L161.926255,8.59447273 L160.960436,5.96610909 L157.146618,5.96610909 L156.157527,8.59447273 L155.344436,8.59447273 L158.634618,0.220654545 L159.530618,0.220654545 Z" id="Fill-21" fill="#1A3D74"></path>
                    <path d="M175.960291,0.895709091 L174.309382,0.895709091 C172.565382,0.895709091 171.749382,1.12843636 171.749382,2.58152727 C171.749382,3.96625455 172.726836,4.22225455 174.216291,4.22225455 L175.960291,4.22225455 L175.960291,0.895709091 Z M173.890473,4.89570909 L171.553018,8.59461818 L170.610473,8.59461818 L173.029382,4.82734545 C171.878836,4.64116364 170.959564,4.03607273 170.959564,2.55825455 C170.959564,1.30298182 171.576291,0.2208 173.750836,0.2208 L176.751564,0.2208 L176.751564,8.59461818 L175.960291,8.59461818 L175.960291,4.89570909 L173.890473,4.89570909 Z" id="Fill-23" fill="#1A3D74"></path>
                    <polygon id="Fill-25" fill="#1A3D74" points="197.629382 4.44247273 201.780655 0.221381818 202.816291 0.221381818 199.513018 3.55956364 203.398109 8.59374545 202.432291 8.59374545 198.942836 4.04683636 197.629382 5.36174545 197.629382 8.59374545 196.838109 8.59374545 196.838109 0.221381818 197.629382 0.221381818"></polygon>
                    <polygon id="Fill-27" fill="#1A3D74" points="212.826764 7.53629091 212.850036 7.53629091 217.687855 0.221381818 218.583855 0.221381818 218.583855 8.5952 217.792582 8.5952 217.792582 1.29192727 217.769309 1.29192727 212.954764 8.5952 212.035491 8.5952 212.035491 0.221381818 212.826764 0.221381818"></polygon>
                    <polygon id="Fill-29" fill="#1A3D74" points="228.745164 3.81469091 233.699345 3.81469091 233.699345 0.220509091 234.490618 0.220509091 234.490618 8.59432727 233.699345 8.59432727 233.699345 4.4896 228.745164 4.4896 228.745164 8.59432727 227.953891 8.59432727 227.953891 0.220509091 228.745164 0.220509091"></polygon>
                    <path d="M250.548364,4.41905455 C250.548364,2.09323636 249.349818,0.675054545 247.419636,0.675054545 C245.268364,0.675054545 244.325818,2.47723636 244.325818,4.41905455 C244.325818,6.39578182 245.256727,8.14123636 247.442909,8.14123636 C249.617455,8.14123636 250.548364,6.37250909 250.548364,4.41905455 M247.396364,0.000145454545 C250.013091,0.000145454545 251.338182,1.96523636 251.338182,4.41905455 C251.338182,6.82632727 250.013091,8.81469091 247.431273,8.81469091 C244.849455,8.81469091 243.536,6.82632727 243.536,4.41905455 C243.536,1.98850909 244.896,0.000145454545 247.396364,0.000145454545" id="Fill-31" fill="#1A3D74"></path>
                    <path d="M266.385745,2.65134545 C266.059927,1.22152727 265.175564,0.674618182 263.745745,0.674618182 C261.722473,0.674618182 260.849745,2.40843636 260.849745,4.38370909 C260.849745,6.25716364 261.536291,8.1408 263.815564,8.1408 C265.258473,8.1408 266.153018,7.1648 266.4672,5.83825455 L267.293382,5.83825455 C266.921018,7.45425455 265.908655,8.81570909 263.664291,8.81570909 C261.082473,8.81570909 260.058473,6.77934545 260.058473,4.40843636 C260.058473,1.20989091 261.734109,-0.000290909091 263.9552,-0.000290909091 C265.675927,-0.000290909091 266.932655,0.918981818 267.200291,2.65134545 L266.385745,2.65134545 Z" id="Fill-33" fill="#1A3D74"></path>
                    <polygon id="Fill-35" fill="#1A3D74" points="281.896436 0.220945455 281.896436 0.895854545 277.1168 0.895854545 277.1168 3.81512727 281.430982 3.81512727 281.430982 4.49003636 277.1168 4.49003636 277.1168 7.91985455 282.0128 7.91985455 282.0128 8.59476364 276.325527 8.59476364 276.325527 0.220945455"></polygon>
                    <polygon id="Fill-37" fill="#1A3D74" points="293.604509 8.59447273 292.813236 8.59447273 292.813236 0.895563636 290.1616 0.895563636 290.1616 0.220654545 296.256145 0.220654545 296.256145 0.895563636 293.604509 0.895563636"></polygon>
                    <path d="M305.661382,7.91985455 L307.312291,7.91985455 C309.056291,7.91985455 309.872291,7.68712727 309.872291,6.23403636 C309.872291,4.84930909 308.825018,4.49003636 307.417018,4.49003636 L305.661382,4.49003636 L305.661382,7.91985455 Z M305.661382,3.81512727 L307.649745,3.81512727 C309.197382,3.81512727 310.662109,4.38385455 310.662109,6.25730909 C310.662109,7.51258182 310.045382,8.59476364 307.870836,8.59476364 L304.870109,8.59476364 L304.870109,0.220945455 L305.661382,0.220945455 L305.661382,3.81512727 Z" id="Fill-39" fill="#1A3D74"></path>
                    <polygon id="Fill-41" fill="#1A3D74" points="112.255127 17.5518545 112.255127 27.6522182 108.941673 27.6522182 108.941673 19.9038545 105.8144 19.9038545 105.8144 27.6522182 102.500945 27.6522182 102.500945 17.5518545"></polygon>
                    <path d="M117.007273,17.5518545 L113.388364,27.6522182 L116.629091,27.6522182 L117.007273,26.3140364 L120.301818,26.3140364 L120.698909,27.6522182 L123.993455,27.6522182 L120.373091,17.5518545 L117.007273,17.5518545 Z M117.637091,24.2107636 L118.658182,20.5918545 L119.727273,24.2107636 L117.637091,24.2107636 Z" id="Fill-43" fill="#1A3D74"></path>
                    <path d="M128.721018,24.5064727 L130.390836,24.5064727 C133.294109,24.5064727 134.585745,23.1304727 134.585745,20.9573818 C134.585745,18.8817455 133.1792,17.5522909 130.275927,17.5522909 L125.411927,17.5522909 L125.411927,27.6526545 L128.721018,27.6526545 L128.721018,24.5064727 Z M128.721018,19.9042909 L129.660655,19.9042909 C130.358836,19.9042909 131.426473,20.0322909 131.426473,20.9719273 C131.426473,21.8432 130.865018,22.1515636 130.092655,22.1515636 L128.721018,22.1515636 L128.721018,19.9042909 Z" id="Fill-45" fill="#1A3D74"></path>
                    <polygon id="Fill-47" fill="#1A3D74" points="139.424873 20.8161455 142.328145 17.5521455 146.214691 17.5521455 142.520145 21.3543273 146.607418 27.6525091 142.6336 27.6525091 140.205964 23.6234182 139.424873 24.4496 139.424873 27.6525091 136.112873 27.6525091 136.112873 17.5521455 139.424873 17.5521455"></polygon>
                    <path d="M34.9824,21.5306182 C34.8878545,20.5153455 34.2507636,19.9378909 33.2500364,19.9378909 C32.1314909,19.9378909 31.4522182,20.8949818 31.4522182,22.7742545 C31.4522182,24.1386182 31.7504,25.4229818 33.3722182,25.4229818 C34.4005818,25.4229818 34.8878545,24.7073455 35.0100364,23.7749818 L38.0776727,23.7749818 C37.7954909,26.2884364 35.9962182,27.8026182 33.4289455,27.8026182 C30.2085818,27.8026182 28.2638545,25.8317091 28.2638545,22.6651636 C28.2638545,19.5160727 30.3976727,17.5538909 33.1133091,17.5538909 C36.0893091,17.5538909 37.7518545,19.0288 38.0122182,21.5306182 L34.9824,21.5306182 Z" id="Fill-49" fill="#1A3D74"></path>
                    <polygon id="Fill-51" fill="#1A3D74" points="48.824 17.8117818 48.824 27.5441455 45.7694545 27.5441455 45.7694545 24.4488727 45.9323636 21.9630545 42.4152727 27.5441455 39.4290909 27.5441455 39.4290909 17.8117818 42.4836364 17.8117818 42.4836364 20.9085091 42.3236364 23.3943273 45.8392727 17.8117818"></polygon>
                    <polygon id="Fill-53" fill="#1A3D74" points="53.9085091 21.2074182 56.9194182 21.2074182 56.9194182 17.8125091 60.1136 17.8125091 60.1136 27.5448727 56.9194182 27.5448727 56.9194182 23.4765091 53.9085091 23.4765091 53.9085091 27.5448727 50.7172364 27.5448727 50.7172364 17.8125091 53.9085091 17.8125091"></polygon>
                    <polygon id="Fill-55" fill="#1A3D74" points="69.9425455 17.8117818 69.9425455 20.0837818 65.1949091 20.0837818 65.1949091 21.4757818 69.2109091 21.4757818 69.2109091 23.7477818 65.1949091 23.7477818 65.1949091 25.2736 70.1272727 25.2736 70.1272727 27.5441455 62.0050909 27.5441455 62.0050909 17.8117818"></polygon>
                    <path d="M75.5377455,17.8117818 L77.2541091,23.8801455 L78.9733818,17.8117818 L82.8250182,17.8117818 L82.8250182,27.5441455 L79.9595636,27.5441455 L79.9595636,24.5725091 C79.9595636,23.4757818 80.0366545,22.4226909 80.1617455,21.2997818 L80.1326545,21.2997818 L78.3610182,27.5441455 L76.1472,27.5441455 L74.3741091,21.2997818 L74.3479273,21.2997818 C74.4439273,22.1506909 74.5501091,23.4626909 74.5501091,24.2452364 L74.5501091,27.5441455 L71.6832,27.5441455 L71.6832,17.8117818 L75.5377455,17.8117818 Z" id="Fill-57" fill="#1A3D74"></path>
                    <path d="M87.4077091,17.8117818 L83.9211636,27.5441455 L87.0426182,27.5441455 L87.4077091,26.2612364 L90.5829818,26.2612364 L90.9597091,27.5441455 L94.1393455,27.5441455 L90.6528,17.8117818 L87.4077091,17.8117818 Z M88.0142545,24.2350545 L89.0018909,20.7485091 L90.0288,24.2350545 L88.0142545,24.2350545 Z" id="Fill-59" fill="#1A3D74"></path>
                    <g id="Group-63" transform="translate(0.000000, 12.014255)">
                        <mask id="mask-2" fill="white">
                            <use xlink:href="#path-1"></use>
                        </mask>
                        <g id="Clip-62"></g>
                        <path d="M22.3460364,10.0091636 C22.3460364,10.3858909 21.9547636,10.6404364 21.4820364,10.5778909 L12.1700364,9.32116364 C11.9358545,9.29061818 11.7496727,9.05789091 11.7496727,8.80189091 L11.7496727,4.09498182 C11.7496727,3.83752727 11.9358545,3.60625455 12.1700364,3.57425455 L21.4820364,2.31752727 C22.2136727,2.22007273 22.3460364,2.60698182 22.3460364,2.9808 L22.3460364,10.0091636 Z M18.7576727,11.8869818 C18.1642182,11.7618909 16.4565818,11.3793455 14.8129455,11.0098909 C13.1722182,10.6404364 11.5984,10.2826182 11.2696727,10.2069818 C10.5758545,10.0426182 10.3096727,9.70225455 10.1816727,9.18007273 C10.1758545,9.15970909 10.2180364,9.0928 10.2544,9.18734545 C10.4362182,9.64407273 10.7489455,9.9248 11.5504,10.0658909 C12.1438545,10.1720727 13.6027636,10.4382545 15.0427636,10.7058909 C16.4827636,10.9691636 17.9009455,11.2324364 18.4129455,11.3284364 C19.0747636,11.4506182 20.1453091,11.7749818 20.2180364,11.1102545 C20.2253091,11.0884364 20.4885818,11.1393455 20.6558545,11.2848 C20.8216727,11.4317091 20.9336727,11.5262545 20.8929455,11.6266182 C20.5962182,12.3669818 19.4093091,12.0280727 18.7576727,11.8869818 Z M17.3831273,12.7088 C17.3700364,12.7044364 17.3525818,12.7015273 17.3380364,12.6957091 C16.7140364,12.5255273 15.0718545,12.0397091 13.4951273,11.5655273 C12.0100364,11.1218909 10.5758545,10.7058909 10.1133091,10.5531636 C10.0507636,10.5342545 9.9984,10.5037091 9.95767273,10.4877091 C9.32494545,10.2215273 9.04858182,9.88698182 8.96421818,9.35752727 C8.96130909,9.33716364 9.00930909,9.27170909 9.0384,9.37207273 C9.17803636,9.84625455 9.50094545,10.1618909 10.2762182,10.3655273 C10.3285818,10.3800727 10.3867636,10.3989818 10.4507636,10.4106182 C11.1009455,10.5720727 12.4216727,10.8891636 13.7249455,11.2295273 C13.7845818,11.2455273 13.8442182,11.2629818 13.9053091,11.2775273 C15.2725818,11.6338909 16.5976727,11.9669818 17.0878545,12.0964364 C17.7380364,12.2666182 18.7634909,12.6666182 18.9365818,11.9917091 C18.9467636,11.9698909 19.1954909,12.0455273 19.3467636,12.2069818 C19.4994909,12.3640727 19.6056727,12.4702545 19.5576727,12.5706182 C19.1853091,13.3109818 18.0304,12.8964364 17.3831273,12.7088 Z M16.0100364,13.5320727 C15.9954909,13.5277091 15.9809455,13.5233455 15.9634909,13.5175273 C15.3511273,13.3066182 13.7307636,12.7073455 12.1744,12.1226182 C10.6893091,11.5655273 9.25803636,11.0418909 8.82894545,10.8702545 C8.75767273,10.8411636 8.69949091,10.7946182 8.64712727,10.7655273 C8.06530909,10.4426182 7.78458182,10.0717091 7.74676364,9.53498182 C7.74530909,9.51461818 7.80058182,9.44770909 7.82094545,9.55534545 C7.92130909,10.0440727 8.25294545,10.4033455 9.00058182,10.6680727 C9.0544,10.6826182 9.11403636,10.7073455 9.17949091,10.7262545 C9.80349091,10.9255273 11.1125818,11.3226182 12.4085818,11.7546182 C12.4682182,11.7764364 12.5307636,11.7982545 12.5918545,11.8186182 C13.9518545,12.2724364 15.2711273,12.6957091 15.7613091,12.8629818 C16.3984,13.0768 17.3816727,13.5553455 17.6565818,12.8775273 C17.6682182,12.8542545 17.9009455,12.9575273 18.0405818,13.1262545 C18.1773091,13.2949818 18.2791273,13.4128 18.2194909,13.5146182 C17.7773091,14.2549818 16.6514909,13.7662545 16.0100364,13.5320727 Z M14.6354909,14.3538909 C14.6194909,14.3466182 14.6064,14.3422545 14.5918545,14.3364364 C13.9911273,14.0848 12.3896727,13.3706182 10.8551273,12.6768 C9.37149091,12.0077091 7.94021818,11.3735273 7.54749091,11.1873455 C7.46458182,11.1451636 7.40203636,11.0869818 7.33512727,11.0418909 C6.79694545,10.6811636 6.5264,10.2520727 6.53076364,9.71243636 C6.53076364,9.69061818 6.59330909,9.62370909 6.60494545,9.73570909 C6.66458182,10.2404364 7.00349091,10.6506182 7.7264,10.9633455 C7.78167273,10.9866182 7.84130909,11.0157091 7.90676364,11.0418909 C8.5104,11.2746182 9.8064,11.7546182 11.0893091,12.2768 C11.1518545,12.3044364 11.2158545,12.3306182 11.2798545,12.3597091 C12.6296727,12.9066182 13.9489455,13.4258909 14.4362182,13.6280727 C15.0616727,13.8898909 15.9998545,14.4455273 16.3751273,13.7575273 C16.3911273,13.7357091 16.6078545,13.8622545 16.7314909,14.0455273 C16.8565818,14.2258909 16.9525818,14.3538909 16.8827636,14.4557091 C16.3736727,15.1960727 15.2740364,14.6331636 14.6354909,14.3538909 Z M15.5445818,15.3837091 C14.9656727,16.1255273 13.8951273,15.4855273 13.2624,15.1611636 C13.2464,15.1553455 13.2333091,15.1466182 13.2202182,15.1408 C12.6296727,14.8469818 11.0500364,14.0193455 9.53294545,13.2178909 C8.05076364,12.4324364 6.62676364,11.6877091 6.26458182,11.4884364 C6.17149091,11.4346182 6.09876364,11.3662545 6.02167273,11.3066182 C5.52130909,10.9124364 5.26676364,10.4193455 5.31476364,9.87534545 C5.31767273,9.85207273 5.38312727,9.78661818 5.38749091,9.90298182 C5.4064,10.4266182 5.75258182,10.8848 6.45076364,11.2469818 C6.50749091,11.2789818 6.56858182,11.3109818 6.63549091,11.3429818 C7.21876364,11.6077091 8.49876364,12.1793455 9.77294545,12.7888 C9.83694545,12.8193455 9.9024,12.8513455 9.9664,12.8818909 C11.3074909,13.5233455 12.6238545,14.1371636 13.1067636,14.3800727 C13.7220364,14.6869818 14.6180364,15.3211636 15.0965818,14.6273455 C15.1125818,14.6040727 15.3147636,14.7553455 15.4253091,14.9488 C15.5344,15.1451636 15.6260364,15.2804364 15.5445818,15.3837091 Z M14.2093091,16.3117091 C13.5591273,17.0549818 12.5147636,16.3422545 11.8864,15.9684364 C11.8747636,15.9611636 11.8616727,15.9524364 11.8471273,15.9437091 C11.2725818,15.6120727 9.71185455,14.6666182 8.21512727,13.7604364 C6.73585455,12.8542545 5.31476364,11.9960727 4.98021818,11.7880727 C4.87985455,11.7255273 4.79403636,11.6455273 4.71112727,11.5728 C4.24130909,11.1451636 4.01003636,10.5880727 4.09730909,10.0382545 C4.10167273,10.0120727 4.17730909,9.94807273 4.17003636,10.0688 C4.15403636,10.6098909 4.50167273,11.1218909 5.17512727,11.5320727 C5.23621818,11.5669818 5.29876364,11.6062545 5.36421818,11.6411636 C5.92712727,11.9408 7.18967273,12.6040727 8.45512727,13.2949818 C8.52203636,13.3328 8.58749091,13.3706182 8.6544,13.4084364 C9.98821818,14.1371636 11.2973091,14.8513455 11.7831273,15.1320727 C12.3838545,15.4811636 13.2362182,16.1968 13.8151273,15.4928 C13.8340364,15.4738909 14.0187636,15.6498909 14.1176727,15.8549818 C14.2136727,16.0586182 14.2965818,16.2069818 14.2093091,16.3117091 Z M12.8740364,17.2382545 C12.1394909,18.0004364 11.0922182,17.1597091 10.4740364,16.7480727 C9.91112727,16.3728 8.37076364,15.3153455 6.89294545,14.2986182 C5.41803636,13.2818909 4.00421818,12.3044364 3.70021818,12.0891636 C3.04858182,11.6295273 2.72567273,10.8658909 2.87985455,10.1997091 C2.88712727,10.1735273 2.96712727,10.1095273 2.95403636,10.2346182 C2.89149091,10.8469818 3.31621818,11.4666182 4.09149091,11.9408 C4.66458182,12.2884364 6.01585455,13.1131636 7.3424,13.9320727 C8.6704,14.7495273 9.97512727,15.5611636 10.4565818,15.8840727 C11.0485818,16.2797091 11.8544,17.0695273 12.5365818,16.3597091 C12.5569455,16.3393455 12.7256727,16.5415273 12.8085818,16.7582545 C12.8914909,16.9749818 12.9714909,17.1335273 12.8740364,17.2382545 Z M21.1184,1.30370909 C21.1184,1.30370909 16.4827636,2.04116364 13.7278545,2.48770909 C12.7620364,2.6448 12.4231273,2.73498182 11.7802182,2.73498182 L11.7744,2.73498182 C11.1329455,2.73498182 10.7911273,2.6448 9.82676364,2.48770909 C7.07185455,2.04116364 2.43621818,1.30370909 2.43621818,1.30370909 C0.716945455,0.969163636 -0.000145454545,1.98589091 -0.000145454545,3.29061818 L-0.000145454545,9.65134545 C-0.000145454545,10.8760727 0.300945455,11.1553455 1.13585455,11.7473455 L9.77003636,18.3626182 C10.3184,18.7829818 11.0384,18.9095273 11.7758545,18.9095273 C12.5162182,18.9095273 13.2362182,18.7829818 13.7845818,18.3626182 L22.4202182,11.7473455 C23.2536727,11.1553455 23.5547636,10.8760727 23.5547636,9.65134545 L23.5547636,3.29061818 C23.5547636,1.98589091 22.8376727,0.969163636 21.1184,1.30370909 Z" id="Fill-61" fill="#1A3D74" mask="url(#mask-2)"></path>
                    </g>
                    <path d="M312.371491,17.9560727 C312.284218,17.5502545 312.105309,17.1982545 311.834764,16.9073455 C311.6224,16.6833455 311.372218,16.5029818 311.085673,16.3749818 C310.8544,16.2586182 310.596945,16.1771636 310.322036,16.1306182 C310.098036,16.0942545 309.859491,16.0797091 309.618036,16.0797091 L187.098764,16.0768 C186.434036,16.0768 185.744582,16.3138909 185.049309,16.7808 C184.416582,17.2069818 183.917673,17.7335273 183.577309,18.3313455 L180.473309,23.6797091 C180.023855,24.4360727 179.802764,25.3946182 180.016582,26.0695273 C180.2944,26.9553455 181.148218,27.7975273 182.135855,27.7975273 L184.103855,27.8033455 L182.956218,29.7742545 L190.492218,29.7757091 L191.6384,27.8048 L204.969309,27.8048 L203.824582,29.8586182 L211.036218,29.8586182 L212.183855,27.8048 L229.431855,27.8048 L228.282764,29.7757091 L238.009309,29.7742545 C238.6624,29.7742545 239.351855,29.6869818 240.034036,29.1997091 C240.640582,28.7429818 240.8864,28.5364364 241.401309,27.9968 L241.594764,27.8033455 L304.8864,27.8018909 C305.154036,27.8018909 305.423127,27.7655273 305.687855,27.7175273 C305.943855,27.6680727 306.199855,27.5968 306.450036,27.5037091 L306.487855,27.4906182 C306.847127,27.3451636 307.202036,27.1517091 307.549673,26.9102545 L307.580218,26.8884364 C307.783855,26.7386182 307.987491,26.5655273 308.195491,26.3720727 C308.402036,26.1757091 308.595491,25.9648 308.768582,25.7422545 C308.909673,25.5691636 309.047855,25.3844364 309.181673,25.1880727 C309.315491,24.9917091 309.4464,24.7822545 309.570036,24.5655273 L311.6864,20.8491636 C311.804218,20.6426182 311.903127,20.4535273 311.988945,20.2731636 C312.0864,20.0753455 312.163491,19.8906182 312.226036,19.7102545 L312.243491,19.6651636 C312.340945,19.3611636 312.400582,19.0818909 312.4224,18.8084364 C312.447127,18.5073455 312.428218,18.2208 312.371491,17.9560727" id="Fill-64" fill="#0279BE"></path>
                    <path d="M312.371491,17.9560727 C312.284218,17.5502545 312.105309,17.1982545 311.834764,16.9073455 C311.6224,16.6833455 311.372218,16.5029818 311.085673,16.3749818 C310.8544,16.2586182 310.596945,16.1771636 310.322036,16.1306182 C310.098036,16.0942545 309.859491,16.0797091 309.618036,16.0797091 L187.098764,16.0768 C186.434036,16.0768 185.744582,16.3138909 185.049309,16.7808 C184.416582,17.2069818 183.917673,17.7335273 183.577309,18.3313455 L180.473309,23.6797091 C180.023855,24.4360727 179.802764,25.3946182 180.016582,26.0695273 C180.2944,26.9553455 181.148218,27.7975273 182.135855,27.7975273 L184.103855,27.8033455 L182.956218,29.7742545 L190.492218,29.7757091 L191.6384,27.8048 L204.969309,27.8048 L203.824582,29.8586182 L211.036218,29.8586182 L212.183855,27.8048 L229.431855,27.8048 L228.282764,29.7757091 L238.009309,29.7742545 C238.6624,29.7742545 239.351855,29.6869818 240.034036,29.1997091 C240.640582,28.7429818 240.8864,28.5364364 241.401309,27.9968 L241.594764,27.8033455 L304.8864,27.8018909 C305.154036,27.8018909 305.423127,27.7655273 305.687855,27.7175273 C305.943855,27.6680727 306.199855,27.5968 306.450036,27.5037091 L306.487855,27.4906182 C306.847127,27.3451636 307.202036,27.1517091 307.549673,26.9102545 L307.580218,26.8884364 C307.783855,26.7386182 307.987491,26.5655273 308.195491,26.3720727 C308.402036,26.1757091 308.595491,25.9648 308.768582,25.7422545 C308.909673,25.5691636 309.047855,25.3844364 309.181673,25.1880727 C309.315491,24.9917091 309.4464,24.7822545 309.570036,24.5655273 L311.6864,20.8491636 C311.804218,20.6426182 311.903127,20.4535273 311.988945,20.2731636 C312.0864,20.0753455 312.163491,19.8906182 312.226036,19.7102545 L312.243491,19.6651636 C312.340945,19.3611636 312.400582,19.0818909 312.4224,18.8084364 C312.447127,18.5073455 312.428218,18.2208 312.371491,17.9560727" id="Fill-66" fill="#FFFFFF"></path>
                    <path d="M312.371491,17.9560727 C312.284218,17.5502545 312.105309,17.1982545 311.834764,16.9073455 C311.6224,16.6833455 311.372218,16.5029818 311.085673,16.3749818 C310.8544,16.2586182 310.596945,16.1771636 310.322036,16.1306182 C310.098036,16.0942545 309.859491,16.0797091 309.618036,16.0797091 L187.098764,16.0768 C186.434036,16.0768 185.744582,16.3138909 185.049309,16.7808 C184.416582,17.2069818 183.917673,17.7335273 183.577309,18.3313455 L180.473309,23.6797091 C180.023855,24.4360727 179.802764,25.3946182 180.016582,26.0695273 C180.2944,26.9553455 181.148218,27.7975273 182.135855,27.7975273 L184.103855,27.8033455 L182.956218,29.7742545 L190.492218,29.7757091 L191.6384,27.8048 L204.969309,27.8048 L203.824582,29.8586182 L211.036218,29.8586182 L212.183855,27.8048 L229.431855,27.8048 L228.282764,29.7757091 L238.009309,29.7742545 C238.6624,29.7742545 239.351855,29.6869818 240.034036,29.1997091 C240.640582,28.7429818 240.8864,28.5364364 241.401309,27.9968 L241.594764,27.8033455 L304.8864,27.8018909 C305.154036,27.8018909 305.423127,27.7655273 305.687855,27.7175273 C305.943855,27.6680727 306.199855,27.5968 306.450036,27.5037091 L306.487855,27.4906182 C306.847127,27.3451636 307.202036,27.1517091 307.549673,26.9102545 L307.580218,26.8884364 C307.783855,26.7386182 307.987491,26.5655273 308.195491,26.3720727 C308.402036,26.1757091 308.595491,25.9648 308.768582,25.7422545 C308.909673,25.5691636 309.047855,25.3844364 309.181673,25.1880727 C309.315491,24.9917091 309.4464,24.7822545 309.570036,24.5655273 L311.6864,20.8491636 C311.804218,20.6426182 311.903127,20.4535273 311.988945,20.2731636 C312.0864,20.0753455 312.163491,19.8906182 312.226036,19.7102545 L312.243491,19.6651636 C312.340945,19.3611636 312.400582,19.0818909 312.4224,18.8084364 C312.447127,18.5073455 312.428218,18.2208 312.371491,17.9560727 Z" id="Stroke-68" stroke="#0279BE" stroke-width="0.5"></path>
                    <path d="M283.810473,17.5973818 L279.832291,24.4337455 C279.807564,24.4788364 279.795927,24.5239273 279.798836,24.5704727 C279.800291,24.6199273 279.811927,24.6592 279.830836,24.6926545 C279.861382,24.7275636 279.896291,24.7552 279.937018,24.7784727 C279.9792,24.7988364 280.025745,24.8090182 280.073745,24.8090182 L281.689745,24.8090182 C281.740655,24.8090182 281.797382,24.8017455 281.859927,24.7828364 C281.923927,24.7668364 281.986473,24.7406545 282.047564,24.7057455 C282.105745,24.6722909 282.161018,24.6344727 282.214836,24.5966545 C282.2672,24.5573818 282.303564,24.5166545 282.3312,24.4730182 L286.3312,17.5973818 L289.9312,17.5973818 L284.901382,26.2461091 L277.326109,26.2461091 C277.157382,26.2461091 277.009018,26.2315636 276.878109,26.2010182 C276.748655,26.1719273 276.632291,26.1297455 276.534836,26.0788364 C276.441745,26.0177455 276.364655,25.9479273 276.303564,25.8664727 C276.241018,25.7835636 276.195927,25.6933818 276.161018,25.6002909 C276.127564,25.5057455 276.108655,25.3995636 276.099927,25.2846545 C276.094109,25.1668364 276.099927,25.0490182 276.121745,24.9297455 C276.153745,24.8090182 276.190109,24.6853818 276.241018,24.5602909 C276.287564,24.4337455 276.345745,24.3130182 276.418473,24.1922909 L280.254109,17.5973818 L283.810473,17.5973818 Z" id="Fill-70" fill="#0279BE"></path>
                    <polygon id="Fill-72" fill="#0279BE" points="278.928436 17.5981091 275.886982 17.5981091 272.153164 20.6337455 273.836073 17.5981091 270.538618 17.5981091 265.501527 26.2482909 268.878982 26.2424727 270.867345 22.2802909 271.185891 21.9559273 272.076073 26.2482909 275.495709 26.2453818 274.262255 21.5210182"></polygon>
                    <polygon id="Fill-74" fill="#0279BE" points="294.726691 17.5973818 292.717964 21.0490182 295.331782 21.0490182 297.339055 17.5973818 300.783418 17.5973818 295.759418 26.2344727 292.316509 26.2344727 294.495418 22.4832 291.884509 22.4832 289.699782 26.2344727 286.229236 26.2344727 291.251782 17.5973818"></polygon>
                    <path d="M200.274909,18.0433455 C200.208,17.9051636 200.097455,17.8018909 199.946182,17.7306182 C199.853091,17.6811636 199.749818,17.6753455 199.629091,17.6520727 C199.509818,17.6273455 199.384727,17.6462545 199.255273,17.6462545 L187.694545,17.6288 C187.582545,17.6288 187.687273,17.6229818 187.565091,17.6389818 C187.44,17.6549818 187.312,17.6651636 187.182545,17.6971636 C187.061818,17.7277091 186.938182,17.7655273 186.808727,17.8222545 C186.679273,17.8775273 186.546909,17.9458909 186.411636,18.0360727 C186.295273,18.1073455 186.178909,18.1975273 186.056727,18.3109818 C185.936,18.4229818 185.816727,18.5466182 185.700364,18.6848 C185.630545,18.7720727 185.563636,18.8637091 185.499636,18.9597091 C185.431273,19.0586182 185.367273,19.1618909 185.301818,19.2738909 L182.170182,24.6557091 C182.120727,24.7429818 182.077091,24.8258909 182.040727,24.9015273 C182.005818,24.9786182 181.979636,25.0484364 181.962182,25.1138909 C181.918545,25.2331636 181.895273,25.3422545 181.888,25.4397091 C181.882182,25.5357091 181.889455,25.6244364 181.906909,25.7058909 C181.934545,25.7844364 181.973818,25.8571636 182.030545,25.9226182 C182.085818,25.9851636 182.148364,26.0433455 182.221091,26.0898909 C182.318545,26.1466182 182.432,26.1786182 182.56,26.2018909 C182.689455,26.2266182 182.827636,26.2309818 182.974545,26.2309818 L187.108364,26.2309818 L185.725091,28.6237091 L189.058909,28.6237091 L190.455273,26.2309818 L194.231273,26.2309818 C194.378182,26.2309818 194.533818,26.2135273 194.698182,26.1844364 C194.862545,26.1582545 195.029818,26.1131636 195.2,26.0578909 C195.329455,26.0084364 195.458909,25.9517091 195.588364,25.8862545 C195.719273,25.8208 195.845818,25.7451636 195.972364,25.6564364 C196.097455,25.5691636 196.221091,25.4673455 196.346182,25.3553455 C196.471273,25.2433455 196.594909,25.1226182 196.717091,24.9917091 C196.805818,24.8898909 196.888727,24.7778909 196.973091,24.6615273 C197.054545,24.5451636 197.131636,24.4215273 197.207273,24.2920727 L199.972364,19.5386182 C200.048,19.4091636 200.112,19.2869818 200.165818,19.1720727 C200.219636,19.0542545 200.263273,18.9437091 200.296727,18.8375273 C200.349091,18.6717091 200.372364,18.5204364 200.365091,18.3866182 C200.359273,18.2557091 200.331636,18.1393455 200.274909,18.0433455 M185.613091,24.9786182 C185.576727,24.9538909 185.550545,24.9117091 185.537455,24.8695273 C185.518545,24.8375273 185.509818,24.7968 185.508364,24.7517091 C185.505455,24.7066182 185.518545,24.6586182 185.547636,24.6091636 L188.711273,19.1662545 C188.730182,19.1342545 188.756364,19.1008 188.785455,19.0629818 C188.816,19.0266182 188.849455,18.9917091 188.887273,18.9597091 C188.923636,18.9277091 188.965818,18.9015273 189.012364,18.8768 C189.058909,18.8520727 189.095273,18.8418909 189.124364,18.8418909 L190.949818,18.8418909 C190.987636,18.8418909 191.021091,18.8506182 191.056,18.8695273 C191.090909,18.8913455 191.117091,18.9175273 191.136,18.9495273 C191.153455,18.9815273 191.162182,19.0149818 191.162182,19.0557091 C191.162182,19.0964364 191.150545,19.1371636 191.127273,19.1764364 L187.954909,24.6309818 C187.930182,24.6717091 187.895273,24.7138909 187.845818,24.7575273 C187.797818,24.8011636 187.739636,24.8389818 187.675636,24.8738909 C187.620364,24.9044364 187.560727,24.9538909 187.495273,24.9786182 C187.429818,25.0033455 187.374545,25.0368 187.328,25.0368 L185.736727,25.0368 C185.691636,25.0368 185.649455,25.0033455 185.613091,24.9786182 M196.834909,19.1764364 L193.669818,24.6193455 C193.646545,24.6586182 193.608727,24.7008 193.562182,24.7458909 C193.512727,24.7909818 193.458909,24.8317091 193.397818,24.8738909 C193.346909,24.8957091 193.296,24.9524364 193.243636,24.9728 C193.188364,24.9917091 193.137455,25.0368 193.093818,25.0368 L191.559273,25.0368 C191.511273,25.0368 191.472,24.9917091 191.435636,24.9728 C191.402182,24.9524364 191.376,24.9102545 191.358545,24.8768 C191.339636,24.8462545 191.332364,24.7997091 191.332364,24.7589818 C191.332364,24.7197091 191.342545,24.6789818 191.36,24.6469818 L194.510545,19.2273455 C194.533818,19.1880727 194.568727,19.1444364 194.612364,19.1008 C194.656,19.0557091 194.708364,19.0135273 194.769455,18.9728 C194.814545,18.9408 194.868364,18.9117091 194.926545,18.8840727 C194.983273,18.8549818 195.034182,18.8418909 195.080727,18.8418909 L196.644364,18.8418909 C196.690909,18.8418909 196.730182,18.8506182 196.765091,18.8695273 C196.8,18.8913455 196.826182,18.9175273 196.845091,18.9495273 C196.862545,18.9815273 196.871273,19.0149818 196.871273,19.0557091 C196.871273,19.0964364 196.859636,19.1371636 196.834909,19.1764364" id="Fill-76" fill="#0279BE"></path>
                    <path d="M209.846691,17.5853091 C209.973236,17.5853091 210.096873,17.5925818 210.211782,17.6100364 C210.328145,17.6245818 210.428509,17.6493091 210.5216,17.6813091 C210.614691,17.7133091 210.688873,17.7554909 210.7456,17.8078545 C210.802327,17.8602182 210.850327,17.9271273 210.888145,18.0071273 C210.912873,18.0871273 210.924509,18.1816727 210.9216,18.2893091 C210.920145,18.3984 210.892509,18.5249455 210.845964,18.6718545 C210.813964,18.7591273 210.771782,18.8551273 210.722327,18.9554909 C210.674327,19.0544 210.613236,19.1649455 210.544873,19.2856727 L207.4496,24.6064 C207.373964,24.7358545 207.298327,24.8536727 207.221236,24.9627636 C207.144145,25.0718545 207.0656,25.1751273 206.979782,25.2711273 C206.876509,25.3816727 206.770327,25.4878545 206.659782,25.5838545 C206.547782,25.6813091 206.437236,25.7613091 206.326691,25.8253091 C206.2176,25.8980364 206.1056,25.9591273 205.987782,26.0114909 C205.869964,26.0653091 205.755055,26.1074909 205.644509,26.1394909 C205.501964,26.1787636 205.356509,26.2064 205.213964,26.2238545 C205.071418,26.2398545 204.936145,26.2485818 204.806691,26.2485818 L199.122327,26.2485818 C198.973964,26.2485818 198.837236,26.2340364 198.707782,26.2107636 C198.578327,26.1874909 198.464873,26.1467636 198.368873,26.0900364 C198.296145,26.0434909 198.232145,25.9853091 198.176873,25.9213091 C198.1216,25.8573091 198.082327,25.7845818 198.054691,25.7060364 C198.035782,25.6245818 198.029964,25.5358545 198.035782,25.4398545 C198.0416,25.3424 198.066327,25.2333091 198.108509,25.1140364 C198.125964,25.0485818 198.152145,24.9787636 198.188509,24.9016727 C198.224873,24.8260364 198.267055,24.7431273 198.319418,24.6558545 L201.4496,19.2740364 C201.515055,19.1605818 201.5776,19.0558545 201.644509,18.9598545 C201.709964,18.8624 201.778327,18.7722182 201.848145,18.6820364 C201.964509,18.5453091 202.085236,18.4231273 202.205964,18.3096727 C202.325236,18.1976727 202.443055,18.1031273 202.559418,18.0304 C202.694691,17.9431273 202.824145,17.8704 202.955055,17.8136727 C203.084509,17.7584 203.211055,17.7133091 203.330327,17.6813091 C203.459782,17.6493091 203.586327,17.6245818 203.711418,17.6100364 C203.835055,17.5925818 203.952873,17.5853091 204.063418,17.5853091 L209.846691,17.5853091 Z M207.096145,18.8376727 L205.270691,18.8376727 C205.2416,18.8376727 205.205236,18.8507636 205.158691,18.8754909 C205.112145,18.8987636 205.071418,18.9278545 205.0336,18.9598545 C204.997236,18.9918545 204.963782,19.0267636 204.931782,19.0631273 C204.904145,19.0994909 204.879418,19.1314909 204.860509,19.1649455 L201.695418,24.6064 C201.664873,24.6558545 201.656145,24.7009455 201.656145,24.7460364 C201.659055,24.7896727 201.666327,24.8274909 201.686691,24.8609455 C201.698327,24.9016727 201.725964,24.9307636 201.760873,24.9569455 C201.795782,24.9802182 201.837964,24.9918545 201.885964,24.9918545 L203.475782,24.9918545 C203.520873,24.9918545 203.5776,24.9802182 203.6416,24.9569455 C203.707055,24.9307636 203.766691,24.9045818 203.821964,24.8740364 C203.888873,24.8391273 203.944145,24.8013091 203.995055,24.7562182 C204.0416,24.7140364 204.076509,24.6718545 204.099782,24.6311273 L207.2736,19.1765818 C207.298327,19.1373091 207.308509,19.0965818 207.308509,19.0558545 C207.308509,19.0151273 207.299782,18.9816727 207.282327,18.9496727 C207.263418,18.9147636 207.237236,18.8885818 207.202327,18.8696727 C207.168873,18.8493091 207.133964,18.8376727 207.096145,18.8376727 Z" id="Fill-78" fill="#0279BE"></path>
                    <path d="M219.956073,17.5973818 C220.084073,17.5973818 220.209164,17.6090182 220.329891,17.6337455 C220.447709,17.6584727 220.553891,17.6933818 220.644073,17.7413818 C220.798255,17.8126545 220.907345,17.9188364 220.975709,18.0570182 C221.028073,18.1515636 221.058618,18.2679273 221.065891,18.3988364 C221.071709,18.5341091 221.046982,18.6853818 220.994618,18.8512 C220.962618,18.9573818 220.920436,19.0679273 220.865164,19.1857455 C220.811345,19.3006545 220.745891,19.4228364 220.671709,19.5508364 L217.906618,24.3057455 C217.832436,24.4337455 217.753891,24.5573818 217.672436,24.6752 C217.590982,24.7915636 217.505164,24.9006545 217.417891,25.0053818 C217.295709,25.1333818 217.172073,25.2555636 217.046982,25.3690182 C216.921891,25.4795636 216.798255,25.5799273 216.670255,25.6686545 C216.545164,25.7573818 216.418618,25.8344727 216.289164,25.8984727 C216.159709,25.9610182 216.031709,26.0177455 215.899345,26.0686545 C215.729164,26.1239273 215.561891,26.1661091 215.396073,26.1952 C215.233164,26.2213818 215.078982,26.2359273 214.930618,26.2359273 L211.156073,26.2359273 L209.758255,28.6359273 L206.422982,28.6359273 L212.850618,17.5973818 L219.956073,17.5973818 Z M217.345164,18.8512 L215.780073,18.8512 C215.736436,18.8512 215.682618,18.8672 215.624436,18.8933818 C215.567709,18.9224727 215.515345,18.9544727 215.470255,18.9835636 C215.410618,19.0242909 215.3568,19.0679273 215.311709,19.1115636 C215.266618,19.1552 215.233164,19.1988364 215.211345,19.2381091 L212.059345,24.6562909 C212.041891,24.6882909 212.031709,24.7246545 212.031709,24.7653818 C212.0288,24.8046545 212.040436,24.8410182 212.057891,24.8730182 C212.075345,24.9050182 212.102982,24.9312 212.136436,24.9501091 C212.1728,24.9704727 212.210618,24.9821091 212.257164,24.9821091 L213.793164,24.9821091 C213.838255,24.9821091 213.889164,24.9704727 213.941527,24.9501091 C213.995345,24.9312 214.047709,24.9093818 214.098618,24.8846545 C214.158255,24.8439273 214.213527,24.8017455 214.261527,24.7581091 C214.310982,24.7144727 214.347345,24.6722909 214.370618,24.6315636 L217.534255,19.1886545 C217.558982,19.1493818 217.570618,19.1086545 217.570618,19.0693818 C217.570618,19.0286545 217.561891,18.9922909 217.542982,18.9602909 C217.525527,18.9282909 217.499345,18.9021091 217.465891,18.8817455 C217.430982,18.8628364 217.390255,18.8512 217.345164,18.8512 Z" id="Fill-80" fill="#0279BE"></path>
                    <polygon id="Fill-82" fill="#0279BE" points="223.128727 17.6065455 227.582545 17.6065455 226.462545 22.5287273 231.207273 17.6065455 235.550545 17.6065455 230.520727 26.2552727 227.088 26.2552727 231.104 19.3578182 224.510545 26.2450909 222.116364 26.2450909 223.578182 19.4276364 219.613091 26.2450909 218.103273 26.2450909"></polygon>
                    <path d="M240.224582,17.5973818 L236.147491,24.6068364 C236.124218,24.6475636 236.109673,24.6882909 236.1024,24.7333818 C236.095127,24.7784727 236.100945,24.8162909 236.1184,24.8497455 C236.127127,24.8962909 236.153309,24.9312 236.192582,24.9573818 C236.234764,24.9806545 236.2784,24.9922909 236.324945,24.9922909 L237.831855,24.9922909 C237.876945,24.9922909 237.9264,24.9821091 237.9744,24.9632 C238.0224,24.9428364 238.073309,24.9122909 238.124218,24.8730182 C238.170764,24.8395636 238.212945,24.8017455 238.253673,24.7552 C238.292945,24.7144727 238.319127,24.6752 238.340945,24.6417455 L242.4384,17.5973818 L245.759127,17.5973818 L240.2144,27.1275636 C240.169309,27.2090182 240.109673,27.2933818 240.039855,27.3821091 C239.970036,27.4708364 239.8944,27.5595636 239.815855,27.6468364 C239.728582,27.7370182 239.634036,27.8184727 239.536582,27.8999273 C239.440582,27.9813818 239.337309,28.0570182 239.231127,28.1282909 C239.124945,28.2010182 239.011491,28.2679273 238.892218,28.3275636 C238.775855,28.3886545 238.652218,28.4453818 238.522764,28.4919273 C238.396218,28.5326545 238.272582,28.5632 238.141673,28.5879273 C238.012218,28.6126545 237.876945,28.6242909 237.740218,28.6242909 L230.880582,28.6242909 L231.593309,27.3937455 L236.243491,27.3937455 C236.317673,27.3937455 236.391855,27.3850182 236.467491,27.3632 C236.543127,27.3428364 236.6144,27.3166545 236.679855,27.2846545 C236.736582,27.2526545 236.784582,27.2162909 236.831127,27.1741091 C236.877673,27.1348364 236.916945,27.0912 236.944582,27.0446545 L237.407127,26.2475636 L233.795491,26.2475636 C233.631127,26.2475636 233.482764,26.2315636 233.356218,26.2010182 C233.225309,26.1661091 233.114764,26.1181091 233.024582,26.0541091 C232.931491,25.9915636 232.858764,25.9144727 232.803491,25.8257455 C232.748218,25.7370182 232.708945,25.6352 232.682764,25.5232 C232.663855,25.4432 232.658036,25.3544727 232.663855,25.2570182 C232.669673,25.1610182 232.682764,25.0606545 232.706036,24.9573818 C232.730764,24.8512 232.768582,24.7435636 232.815127,24.6315636 C232.860218,24.5181091 232.919855,24.4017455 232.989673,24.2824727 L236.876218,17.5973818 L240.224582,17.5973818 Z" id="Fill-84" fill="#0279BE"></path>
                    <path d="M251.655709,19.1854545 L247.559709,26.2298182 L250.9328,26.2298182 L255.953891,17.5985455 L249.7808,17.5985455 C249.430255,17.5985455 249.078255,17.6494545 248.721891,17.7861818 C248.406255,17.8981818 248.103709,18.0625455 247.811345,18.2807273 C247.7008,18.3621818 247.584436,18.4552727 247.468073,18.5629091 C247.3488,18.6705455 247.2368,18.7883636 247.129164,18.9076364 C247.021527,19.0283636 246.919709,19.1549091 246.8208,19.2945455 C246.723345,19.4298182 241.875345,26.2298182 241.875345,26.2298182 L245.222255,26.2298182 L250.253527,19.1970909 C250.289891,19.1316364 250.333527,19.0792727 250.381527,19.0341818 C250.432436,18.9890909 250.483345,18.9512727 250.540073,18.9207273 C250.606982,18.88 250.678255,18.8509091 250.746618,18.8349091 C250.816436,18.8203636 250.877527,18.8101818 250.9328,18.8101818 L251.446255,18.8101818 C251.491345,18.8101818 251.536436,18.8203636 251.582982,18.8349091 C251.629527,18.8509091 251.661527,18.8756364 251.680436,18.9076364 C251.702255,18.9309091 251.713891,18.9687273 251.713891,19.0152727 C251.712436,19.0647273 251.694982,19.12 251.655709,19.1854545" id="Fill-86" fill="#0279BE"></path>
                    <path d="M257.404945,26.2372364 C256.1904,26.2372364 254.975855,26.2401455 253.762764,26.2372364 C253.538764,26.2357818 253.3264,26.1892364 253.148945,26.0437818 C252.9904,25.9143273 252.914764,25.7412364 252.901673,25.5405091 C252.885673,25.2714182 252.961309,25.0241455 253.093673,24.7928727 C253.419491,24.2241455 253.749673,23.6568727 254.079855,23.0896 C254.303855,22.7056 254.524945,22.3230545 254.748945,21.9419636 C255.028218,21.4663273 255.420945,21.1070545 255.887855,20.8219636 C256.181673,20.6459636 256.4944,20.5150545 256.828945,20.4539636 C256.9584,20.4306909 257.087855,20.4234182 257.2144,20.4234182 C258.331491,20.4219636 259.450036,20.4205091 260.567127,20.4248727 C260.738764,20.4248727 260.890036,20.3826909 261.032582,20.2939636 C261.210036,20.1805091 261.375855,20.0539636 261.498036,19.8779636 C261.546036,19.8096 261.579491,19.7339636 261.5984,19.6510545 C261.617309,19.5550545 261.5984,19.4692364 261.548945,19.3863273 C261.506764,19.3179636 261.441309,19.2917818 261.362764,19.2917818 C260.872582,19.2917818 256.271855,19.2888727 256.271855,19.2888727 L257.2464,17.6016 C257.2464,17.6016 262.639855,17.6030545 264.114764,17.6030545 C264.308218,17.6030545 264.501673,17.6088727 264.684945,17.6772364 C265.100945,17.8343273 265.218764,18.0859636 265.2144,18.4830545 C265.205673,18.9412364 265.036945,19.3543273 264.855127,19.7645091 C264.639855,20.2503273 264.357673,20.6997818 264.092945,21.1565091 C263.717673,21.8023273 263.343855,22.4466909 262.968582,23.0896 C262.437673,24.0016 261.908218,24.9121455 261.377309,25.8241455 C261.307491,25.9434182 261.236218,26.0656 261.167855,26.1848727 C261.148945,26.2241455 261.124218,26.2386909 261.082036,26.2386909 C260.668945,26.2372364 260.252945,26.2372364 259.839855,26.2372364 L257.404945,26.2372364 Z M258.725673,22.0917818 C258.495855,22.0816 258.293673,22.1456 258.107491,22.2721455 C257.924218,22.3986909 257.746764,22.5368727 257.6304,22.7376 C257.292945,23.3208727 256.954036,23.9012364 256.615127,24.4830545 C256.588945,24.5310545 256.562764,24.5805091 256.546764,24.6314182 C256.497309,24.7928727 256.562764,24.9368727 256.711127,24.9848727 C256.754764,24.9965091 256.799855,25.0008727 256.8464,25.0008727 C257.210036,25.0008727 257.573673,25.0023273 257.940218,25.0008727 C258.315491,24.9979636 258.5904,24.8103273 258.792582,24.5077818 C258.895855,24.3506909 258.980218,24.1805091 259.073309,24.0176 C259.429673,23.3921455 260.165673,22.0917818 260.165673,22.0917818 L258.725673,22.0917818 Z" id="Fill-88" fill="#0279BE"></path>
                    <path d="M309.585309,17.5853091 C309.716218,17.5853091 309.836945,17.5940364 309.9504,17.6100364 C310.068218,17.6245818 310.171491,17.6493091 310.261673,17.6827636 C310.353309,17.7133091 310.428945,17.7569455 310.487127,17.8078545 C310.543855,17.8616727 310.588945,17.9271273 310.626764,18.0085818 C310.651491,18.0885818 310.666036,18.1831273 310.661673,18.2907636 C310.658764,18.3998545 310.634036,18.5249455 310.586036,18.6718545 C310.552582,18.7605818 310.511855,18.8551273 310.4624,18.9554909 C310.412945,19.0558545 310.353309,19.1649455 310.283491,19.2856727 L307.189673,24.6078545 C307.114036,24.7358545 307.036945,24.8551273 306.959855,24.9627636 C306.884218,25.0718545 306.804218,25.1751273 306.719855,25.2711273 C306.616582,25.3845818 306.5104,25.4878545 306.399855,25.5838545 C306.287855,25.6813091 306.175855,25.7613091 306.065309,25.8253091 C305.959127,25.8980364 305.845673,25.9605818 305.729309,26.0114909 C305.610036,26.0653091 305.495127,26.1074909 305.386036,26.1394909 C305.242036,26.1787636 305.098036,26.2078545 304.955491,26.2238545 C304.811491,26.2398545 304.676218,26.2485818 304.546764,26.2485818 L298.8624,26.2485818 C298.712582,26.2485818 298.575855,26.2354909 298.4464,26.2122182 C298.316945,26.1874909 298.2064,26.1467636 298.108945,26.0914909 C298.036218,26.0434909 297.972218,25.9867636 297.916945,25.9213091 C297.861673,25.8587636 297.820945,25.7860364 297.794764,25.7060364 C297.777309,25.6245818 297.768582,25.5358545 297.775855,25.4398545 C297.781673,25.3424 297.804945,25.2362182 297.847127,25.1140364 C297.867491,25.0485818 297.893673,24.9787636 297.930036,24.9016727 C297.963491,24.8274909 298.007127,24.7431273 298.058036,24.6558545 L301.188218,19.2740364 C301.253673,19.1605818 301.320582,19.0587636 301.384582,18.9598545 C301.450036,18.8638545 301.5184,18.7722182 301.588218,18.6849455 C301.704582,18.5467636 301.823855,18.4231273 301.944582,18.3096727 C302.065309,18.1976727 302.183127,18.1031273 302.299491,18.0318545 C302.433309,17.9431273 302.565673,17.8718545 302.693673,17.8151273 C302.826036,17.7598545 302.949673,17.7133091 303.0704,17.6827636 C303.1984,17.6493091 303.3264,17.6245818 303.450036,17.6100364 C303.576582,17.5940364 303.692945,17.5853091 303.803491,17.5853091 L309.585309,17.5853091 Z M306.836218,18.8405818 L305.010764,18.8405818 C304.983127,18.8405818 304.945309,18.8522182 304.898764,18.8754909 C304.852218,18.8987636 304.811491,18.9278545 304.773673,18.9598545 C304.737309,18.9933091 304.703855,19.0267636 304.671855,19.0631273 C304.642764,19.1009455 304.618036,19.1329455 304.600582,19.1649455 L301.434036,24.6078545 C301.4064,24.6558545 301.394764,24.7009455 301.394764,24.7460364 C301.397673,24.7911273 301.4064,24.8274909 301.425309,24.8609455 C301.4384,24.9016727 301.464582,24.9336727 301.500945,24.9584 C301.535855,24.9816727 301.578036,24.9933091 301.624582,24.9933091 L303.217309,24.9933091 C303.260945,24.9933091 303.317673,24.9816727 303.381673,24.9584 C303.445673,24.9336727 303.505309,24.9045818 303.563491,24.8740364 C303.627491,24.8405818 303.682764,24.8013091 303.733673,24.7576727 C303.781673,24.7140364 303.818036,24.6718545 303.841309,24.6311273 L307.013673,19.1765818 C307.036945,19.1373091 307.048582,19.0980364 307.050036,19.0587636 C307.050036,19.0165818 307.039855,18.9816727 307.0224,18.9496727 C307.004945,18.9176727 306.977309,18.8900364 306.943855,18.8696727 C306.9104,18.8507636 306.872582,18.8405818 306.836218,18.8405818 Z" id="Fill-90" fill="#0279BE"></path>
                </g>
            </g>
        </g>
    </g>
</svg>